<mxfile host="app.diagrams.net" modified="2023-12-19T16:20:05.780Z" agent="Mozilla/5.0 (Windows NT 10.0; Win64; x64) AppleWebKit/537.36 (KHTML, like Gecko) Chrome/120.0.0.0 Safari/537.36" etag="GDVoUlQU80PZI65FSGPb" version="22.1.11" type="device">
  <diagram name="Pagina-1" id="FXyGcG8aw2ZXNI5NaLja">
    <mxGraphModel dx="1562" dy="765" grid="1" gridSize="10" guides="1" tooltips="1" connect="1" arrows="1" fold="1" page="1" pageScale="1" pageWidth="1169" pageHeight="827" math="0" shadow="0">
      <root>
        <mxCell id="0" />
        <mxCell id="1" parent="0" />
        <mxCell id="ZtffvyYg2WjF2O-NpsjH-1" value="CLEANING-COMPANY" style="text;html=1;strokeColor=none;fillColor=none;align=center;verticalAlign=middle;whiteSpace=wrap;rounded=0;fontSize=17;" parent="1" vertex="1">
          <mxGeometry x="567.5" y="750" width="185" height="30" as="geometry" />
        </mxCell>
        <mxCell id="ZtffvyYg2WjF2O-NpsjH-2" value="SERVICES" style="text;html=1;strokeColor=none;fillColor=none;align=center;verticalAlign=middle;whiteSpace=wrap;rounded=0;fontSize=17;" parent="1" vertex="1">
          <mxGeometry x="800" y="750" width="150" height="30" as="geometry" />
        </mxCell>
        <mxCell id="ZtffvyYg2WjF2O-NpsjH-3" value="OFFERED-SERVICE" style="text;html=1;strokeColor=none;fillColor=none;align=center;verticalAlign=middle;whiteSpace=wrap;rounded=0;fontSize=17;" parent="1" vertex="1">
          <mxGeometry x="990" y="750" width="166" height="30" as="geometry" />
        </mxCell>
        <mxCell id="ZtffvyYg2WjF2O-NpsjH-7" value="&amp;nbsp;&lt;b&gt;&lt;font style=&quot;font-size: 20px;&quot;&gt;σ&lt;/font&gt;&lt;/b&gt; &lt;font style=&quot;font-size: 17px;&quot;&gt;Region = &#39;Piedmont&#39; or Region = &#39;Liguria&#39;&lt;/font&gt;" style="text;html=1;strokeColor=none;fillColor=none;align=center;verticalAlign=middle;whiteSpace=wrap;rounded=0;fontSize=17;" parent="1" vertex="1">
          <mxGeometry x="565" y="660" width="190" height="40" as="geometry" />
        </mxCell>
        <mxCell id="ZtffvyYg2WjF2O-NpsjH-9" value="&amp;nbsp;&lt;font style=&quot;font-size: 20px;&quot;&gt;&lt;b&gt;σ&lt;/b&gt;&lt;/font&gt; &lt;font style=&quot;font-size: 17px;&quot;&gt;Category =&lt;br&gt;&#39;IndoorCleaning&#39;&lt;/font&gt;" style="text;html=1;strokeColor=none;fillColor=none;align=center;verticalAlign=middle;whiteSpace=wrap;rounded=0;fontSize=17;" parent="1" vertex="1">
          <mxGeometry x="804" y="657.5" width="142" height="45" as="geometry" />
        </mxCell>
        <mxCell id="ZtffvyYg2WjF2O-NpsjH-13" value="" style="line;strokeWidth=1;direction=south;html=1;fontSize=14;" parent="1" vertex="1">
          <mxGeometry x="655" y="700" width="10" height="50" as="geometry" />
        </mxCell>
        <mxCell id="ZtffvyYg2WjF2O-NpsjH-14" value="" style="line;strokeWidth=1;direction=south;html=1;fontSize=14;" parent="1" vertex="1">
          <mxGeometry x="870" y="710" width="10" height="40" as="geometry" />
        </mxCell>
        <mxCell id="ZtffvyYg2WjF2O-NpsjH-16" value="" style="endArrow=none;html=1;rounded=0;edgeStyle=orthogonalEdgeStyle;fontSize=14;" parent="1" edge="1">
          <mxGeometry width="50" height="50" relative="1" as="geometry">
            <mxPoint x="890" y="540" as="sourcePoint" />
            <mxPoint x="980" y="600" as="targetPoint" />
            <Array as="points">
              <mxPoint x="980" y="540" />
            </Array>
          </mxGeometry>
        </mxCell>
        <mxCell id="ZtffvyYg2WjF2O-NpsjH-18" value="" style="endArrow=none;html=1;rounded=0;edgeStyle=orthogonalEdgeStyle;entryX=0;entryY=0.5;entryDx=0;entryDy=0;fontSize=14;" parent="1" target="ZtffvyYg2WjF2O-NpsjH-20" edge="1">
          <mxGeometry width="50" height="50" relative="1" as="geometry">
            <mxPoint x="660" y="660" as="sourcePoint" />
            <mxPoint x="820" y="540" as="targetPoint" />
            <Array as="points">
              <mxPoint x="660" y="540" />
            </Array>
          </mxGeometry>
        </mxCell>
        <mxCell id="ZtffvyYg2WjF2O-NpsjH-20" value="&lt;font style=&quot;&quot;&gt;&lt;font style=&quot;font-size: 20px;&quot;&gt;&lt;b&gt;⋈&lt;/b&gt;&lt;/font&gt;&lt;font style=&quot;font-size: 17px;&quot;&gt;&amp;nbsp;CId&lt;/font&gt;&lt;br style=&quot;font-size: 17px;&quot;&gt;&lt;/font&gt;" style="text;html=1;strokeColor=none;fillColor=none;align=center;verticalAlign=middle;whiteSpace=wrap;rounded=0;fontSize=17;" parent="1" vertex="1">
          <mxGeometry x="829.5" y="525" width="59" height="30" as="geometry" />
        </mxCell>
        <mxCell id="ZtffvyYg2WjF2O-NpsjH-21" value="" style="line;strokeWidth=1;direction=south;html=1;fontSize=14;" parent="1" vertex="1">
          <mxGeometry x="854" y="480" width="10" height="50" as="geometry" />
        </mxCell>
        <mxCell id="ZtffvyYg2WjF2O-NpsjH-22" value="&lt;b&gt;&lt;font style=&quot;font-size: 20px;&quot;&gt;GB&lt;/font&gt;&lt;/b&gt;&amp;nbsp;OS.SId" style="text;html=1;strokeColor=none;fillColor=none;align=center;verticalAlign=middle;whiteSpace=wrap;rounded=0;fontSize=17;" parent="1" vertex="1">
          <mxGeometry x="784" y="450" width="150" height="30" as="geometry" />
        </mxCell>
        <mxCell id="ZtffvyYg2WjF2O-NpsjH-23" value="" style="line;strokeWidth=1;direction=south;html=1;fontSize=14;" parent="1" vertex="1">
          <mxGeometry x="854" y="400" width="10" height="50" as="geometry" />
        </mxCell>
        <mxCell id="ZtffvyYg2WjF2O-NpsjH-24" value="&amp;nbsp;&lt;b&gt;&lt;font style=&quot;font-size: 20px;&quot;&gt;σ&lt;/font&gt;&lt;/b&gt; &lt;span style=&quot;font-size: 17px;&quot;&gt;COUNT(*)&amp;gt;1&lt;/span&gt;" style="text;html=1;strokeColor=none;fillColor=none;align=center;verticalAlign=middle;whiteSpace=wrap;rounded=0;fontSize=17;" parent="1" vertex="1">
          <mxGeometry x="784" y="370" width="150" height="30" as="geometry" />
        </mxCell>
        <mxCell id="ZtffvyYg2WjF2O-NpsjH-25" value="CLEANING-SERVICE" style="text;html=1;strokeColor=none;fillColor=none;align=center;verticalAlign=middle;whiteSpace=wrap;rounded=0;fontSize=17;" parent="1" vertex="1">
          <mxGeometry x="5" y="750" width="195" height="30" as="geometry" />
        </mxCell>
        <mxCell id="ZtffvyYg2WjF2O-NpsjH-26" value="BUILDING" style="text;html=1;strokeColor=none;fillColor=none;align=center;verticalAlign=middle;whiteSpace=wrap;rounded=0;fontSize=17;" parent="1" vertex="1">
          <mxGeometry x="280" y="750" width="150" height="30" as="geometry" />
        </mxCell>
        <mxCell id="ZtffvyYg2WjF2O-NpsjH-27" value="" style="line;strokeWidth=1;direction=south;html=1;fontSize=14;" parent="1" vertex="1">
          <mxGeometry x="75" y="694" width="10" height="46" as="geometry" />
        </mxCell>
        <mxCell id="ZtffvyYg2WjF2O-NpsjH-28" value="" style="line;strokeWidth=1;direction=south;html=1;fontSize=14;" parent="1" vertex="1">
          <mxGeometry x="355" y="700" width="10" height="50" as="geometry" />
        </mxCell>
        <mxCell id="ZtffvyYg2WjF2O-NpsjH-29" value="&amp;nbsp;&lt;b&gt;&lt;font style=&quot;font-size: 20px;&quot;&gt;σ&lt;/font&gt;&lt;/b&gt; &lt;span style=&quot;font-size: 17px;&quot;&gt;Date&amp;gt;=1/1/2022 and Date&amp;lt;=31/12/2022&lt;/span&gt;" style="text;html=1;strokeColor=none;fillColor=none;align=center;verticalAlign=middle;whiteSpace=wrap;rounded=0;fontSize=17;" parent="1" vertex="1">
          <mxGeometry x="5" y="624" width="150" height="70" as="geometry" />
        </mxCell>
        <mxCell id="ZtffvyYg2WjF2O-NpsjH-30" value="&amp;nbsp;&lt;b&gt;&lt;font style=&quot;font-size: 20px;&quot;&gt;σ&lt;/font&gt;&lt;/b&gt; &lt;span style=&quot;font-size: 17px;&quot;&gt;BuildingType &amp;lt;&amp;gt; &#39;Office&#39;&lt;/span&gt;" style="text;html=1;strokeColor=none;fillColor=none;align=center;verticalAlign=middle;whiteSpace=wrap;rounded=0;fontSize=17;" parent="1" vertex="1">
          <mxGeometry x="257.5" y="670" width="205" height="30" as="geometry" />
        </mxCell>
        <mxCell id="ZtffvyYg2WjF2O-NpsjH-31" value="" style="line;strokeWidth=1;direction=south;html=1;fontSize=14;" parent="1" vertex="1">
          <mxGeometry x="355" y="620" width="10" height="50" as="geometry" />
        </mxCell>
        <mxCell id="ZtffvyYg2WjF2O-NpsjH-32" value="&amp;nbsp;&lt;font style=&quot;font-size: 20px;&quot;&gt;&lt;b&gt;σ&lt;/b&gt;&lt;/font&gt; &lt;span style=&quot;font-size: 17px;&quot;&gt;City = &#39;Turin&#39;&lt;/span&gt;" style="text;html=1;strokeColor=none;fillColor=none;align=center;verticalAlign=middle;whiteSpace=wrap;rounded=0;fontSize=17;" parent="1" vertex="1">
          <mxGeometry x="296.25" y="590" width="127.5" height="30" as="geometry" />
        </mxCell>
        <mxCell id="ZtffvyYg2WjF2O-NpsjH-33" value="" style="endArrow=none;html=1;rounded=0;edgeStyle=orthogonalEdgeStyle;fontSize=14;" parent="1" edge="1">
          <mxGeometry width="50" height="50" relative="1" as="geometry">
            <mxPoint x="80" y="620" as="sourcePoint" />
            <mxPoint x="190" y="540" as="targetPoint" />
            <Array as="points">
              <mxPoint x="80" y="540" />
            </Array>
          </mxGeometry>
        </mxCell>
        <mxCell id="ZtffvyYg2WjF2O-NpsjH-34" value="" style="endArrow=none;html=1;rounded=0;edgeStyle=orthogonalEdgeStyle;fontSize=14;" parent="1" edge="1">
          <mxGeometry width="50" height="50" relative="1" as="geometry">
            <mxPoint x="250" y="540" as="sourcePoint" />
            <mxPoint x="360" y="590" as="targetPoint" />
            <Array as="points">
              <mxPoint x="360" y="540" />
              <mxPoint x="360" y="590" />
            </Array>
          </mxGeometry>
        </mxCell>
        <mxCell id="ZtffvyYg2WjF2O-NpsjH-35" value="&lt;font style=&quot;&quot;&gt;&lt;b style=&quot;&quot;&gt;&lt;font style=&quot;font-size: 20px;&quot;&gt;⋈&amp;nbsp;&lt;/font&gt;&lt;/b&gt;&lt;span style=&quot;font-size: 17px;&quot;&gt;BId&lt;/span&gt;&lt;br style=&quot;font-size: 17px;&quot;&gt;&lt;/font&gt;" style="text;html=1;strokeColor=none;fillColor=none;align=center;verticalAlign=middle;whiteSpace=wrap;rounded=0;fontSize=17;" parent="1" vertex="1">
          <mxGeometry x="200" y="530" width="40" height="20" as="geometry" />
        </mxCell>
        <mxCell id="ZtffvyYg2WjF2O-NpsjH-36" value="" style="endArrow=none;html=1;rounded=0;edgeStyle=orthogonalEdgeStyle;fontSize=14;" parent="1" edge="1">
          <mxGeometry width="50" height="50" relative="1" as="geometry">
            <mxPoint x="220" y="530" as="sourcePoint" />
            <mxPoint x="490" y="330" as="targetPoint" />
            <Array as="points">
              <mxPoint x="220" y="330" />
              <mxPoint x="490" y="330" />
            </Array>
          </mxGeometry>
        </mxCell>
        <mxCell id="ZtffvyYg2WjF2O-NpsjH-37" value="" style="endArrow=none;html=1;rounded=0;edgeStyle=orthogonalEdgeStyle;fontSize=14;" parent="1" edge="1">
          <mxGeometry width="50" height="50" relative="1" as="geometry">
            <mxPoint x="550" y="330" as="sourcePoint" />
            <mxPoint x="859" y="370" as="targetPoint" />
            <Array as="points">
              <mxPoint x="689" y="330" />
              <mxPoint x="859" y="330" />
            </Array>
          </mxGeometry>
        </mxCell>
        <mxCell id="ZtffvyYg2WjF2O-NpsjH-39" value="&lt;span style=&quot;font-family: arial, helvetica, sans-serif; font-style: normal; font-variant-ligatures: normal; font-variant-caps: normal; letter-spacing: normal; orphans: 2; text-indent: 0px; text-transform: none; widows: 2; word-spacing: 0px; -webkit-text-stroke-width: 0px; text-decoration-thickness: initial; text-decoration-style: initial; text-decoration-color: initial; float: none; display: inline !important;&quot;&gt;&lt;font style=&quot;font-size: 20px;&quot;&gt;&lt;b&gt;⋉&lt;/b&gt;&lt;/font&gt;&lt;font style=&quot;font-weight: 400; font-size: 17px;&quot;&gt; &lt;/font&gt;&lt;font style=&quot;font-weight: 400; font-size: 17px;&quot;&gt;SId&lt;/font&gt;&lt;/span&gt;" style="text;whiteSpace=wrap;html=1;align=left;verticalAlign=middle;fontSize=17;fontColor=#000000;" parent="1" vertex="1">
          <mxGeometry x="500" y="320" width="50" height="20" as="geometry" />
        </mxCell>
        <mxCell id="ZtffvyYg2WjF2O-NpsjH-40" value="" style="line;strokeWidth=1;direction=south;html=1;fontSize=14;" parent="1" vertex="1">
          <mxGeometry x="515" y="260" width="10" height="50" as="geometry" />
        </mxCell>
        <mxCell id="ZtffvyYg2WjF2O-NpsjH-41" value="&lt;b&gt;&lt;font style=&quot;font-size: 20px;&quot;&gt;GB&lt;/font&gt;&lt;/b&gt;&amp;nbsp;CS.BId" style="text;html=1;strokeColor=none;fillColor=none;align=center;verticalAlign=middle;whiteSpace=wrap;rounded=0;fontSize=17;" parent="1" vertex="1">
          <mxGeometry x="445" y="230" width="150" height="30" as="geometry" />
        </mxCell>
        <mxCell id="ZtffvyYg2WjF2O-NpsjH-42" value="" style="line;strokeWidth=1;direction=south;html=1;fontSize=14;" parent="1" vertex="1">
          <mxGeometry x="515" y="180" width="10" height="50" as="geometry" />
        </mxCell>
        <mxCell id="ZtffvyYg2WjF2O-NpsjH-43" value="&amp;nbsp;&lt;font style=&quot;font-size: 20px;&quot;&gt;&lt;b&gt;σ&lt;/b&gt;&lt;/font&gt; &lt;span style=&quot;font-size: 17px;&quot;&gt;SUM(Cost) &amp;gt;= 1000&lt;/span&gt;" style="text;html=1;strokeColor=none;fillColor=none;align=center;verticalAlign=middle;whiteSpace=wrap;rounded=0;fontSize=17;" parent="1" vertex="1">
          <mxGeometry x="445" y="150" width="195" height="30" as="geometry" />
        </mxCell>
        <mxCell id="ZtffvyYg2WjF2O-NpsjH-44" value="" style="line;strokeWidth=1;direction=south;html=1;fontSize=14;" parent="1" vertex="1">
          <mxGeometry x="515" y="100" width="10" height="50" as="geometry" />
        </mxCell>
        <mxCell id="ZtffvyYg2WjF2O-NpsjH-45" value="&lt;span style=&quot;color: rgb(4, 12, 40); font-family: &amp;quot;Google Sans&amp;quot;, arial, sans-serif; font-style: normal; font-variant-ligatures: normal; font-variant-caps: normal; letter-spacing: normal; orphans: 2; text-align: left; text-indent: 0px; text-transform: none; widows: 2; word-spacing: 0px; -webkit-text-stroke-width: 0px; text-decoration-thickness: initial; text-decoration-style: initial; text-decoration-color: initial; background-color: rgb(255, 255, 255);&quot;&gt;&lt;b style=&quot;&quot;&gt;&lt;font style=&quot;font-size: 20px;&quot;&gt;π&lt;/font&gt;&lt;/b&gt;&lt;/span&gt;&lt;b style=&quot;color: rgb(4, 12, 40); font-weight: 500; font-family: &amp;quot;Google Sans&amp;quot;, arial, sans-serif; font-size: 17px; font-style: normal; font-variant-ligatures: normal; font-variant-caps: normal; letter-spacing: normal; orphans: 2; text-align: left; text-indent: 0px; text-transform: none; widows: 2; word-spacing: 0px; -webkit-text-stroke-width: 0px; text-decoration-thickness: initial; text-decoration-style: initial; text-decoration-color: initial; background-color: rgb(255, 255, 255);&quot;&gt; &lt;/b&gt;&lt;b style=&quot;color: rgb(4, 12, 40); font-weight: 500; font-family: &amp;quot;Google Sans&amp;quot;, arial, sans-serif; font-style: normal; font-variant-ligatures: normal; font-variant-caps: normal; letter-spacing: normal; orphans: 2; text-align: left; text-indent: 0px; text-transform: none; widows: 2; word-spacing: 0px; -webkit-text-stroke-width: 0px; text-decoration-thickness: initial; text-decoration-style: initial; text-decoration-color: initial; background-color: rgb(255, 255, 255); font-size: 17px;&quot;&gt;&lt;font style=&quot;font-size: 17px;&quot;&gt;BId, SUM(Cost), SUM(NumHours)&lt;/font&gt;&lt;/b&gt;" style="text;whiteSpace=wrap;html=1;verticalAlign=middle;fontSize=17;" parent="1" vertex="1">
          <mxGeometry x="375" y="60" width="290" height="30" as="geometry" />
        </mxCell>
        <mxCell id="ZtffvyYg2WjF2O-NpsjH-46" value="" style="endArrow=none;html=1;rounded=0;edgeStyle=orthogonalEdgeStyle;fontSize=14;" parent="1" edge="1">
          <mxGeometry width="50" height="50" relative="1" as="geometry">
            <mxPoint x="875" y="650" as="sourcePoint" />
            <mxPoint x="950" y="610" as="targetPoint" />
            <Array as="points">
              <mxPoint x="875" y="610" />
              <mxPoint x="956" y="610" />
            </Array>
          </mxGeometry>
        </mxCell>
        <mxCell id="ZtffvyYg2WjF2O-NpsjH-47" value="" style="endArrow=none;html=1;rounded=0;edgeStyle=orthogonalEdgeStyle;fontSize=14;" parent="1" edge="1">
          <mxGeometry width="50" height="50" relative="1" as="geometry">
            <mxPoint x="1002" y="610" as="sourcePoint" />
            <mxPoint x="1076" y="750" as="targetPoint" />
            <Array as="points">
              <mxPoint x="1076" y="610" />
            </Array>
          </mxGeometry>
        </mxCell>
        <mxCell id="ZtffvyYg2WjF2O-NpsjH-48" value="&lt;font style=&quot;&quot;&gt;&lt;b style=&quot;&quot;&gt;&lt;font style=&quot;font-size: 20px;&quot;&gt;⋈&lt;/font&gt;&lt;/b&gt;&amp;nbsp;&lt;font style=&quot;font-size: 17px;&quot;&gt;SId&lt;/font&gt;&lt;br style=&quot;font-size: 17px;&quot;&gt;&lt;/font&gt;" style="text;html=1;strokeColor=none;fillColor=none;align=center;verticalAlign=middle;whiteSpace=wrap;rounded=0;fontSize=17;" parent="1" vertex="1">
          <mxGeometry x="960" y="600" width="40" height="30" as="geometry" />
        </mxCell>
        <mxCell id="hh6XJMg2Mayo5gV9Mvoj-1" value="&lt;span style=&quot;font-size: 18.3333px;&quot;&gt;10&lt;sup&gt;4&lt;/sup&gt;&lt;/span&gt;" style="text;html=1;strokeColor=none;fillColor=none;align=center;verticalAlign=middle;whiteSpace=wrap;rounded=0;fontSize=22;fontColor=#CC0066;" parent="1" vertex="1">
          <mxGeometry x="630" y="780" width="60" height="30" as="geometry" />
        </mxCell>
        <mxCell id="hh6XJMg2Mayo5gV9Mvoj-3" value="&lt;span style=&quot;font-size: 18.3333px;&quot;&gt;2 * 10&lt;sup&gt;5&lt;/sup&gt;&lt;/span&gt;" style="text;html=1;strokeColor=none;fillColor=none;align=center;verticalAlign=middle;whiteSpace=wrap;rounded=0;fontSize=22;fontColor=#CC0066;" parent="1" vertex="1">
          <mxGeometry x="1043" y="780" width="60" height="30" as="geometry" />
        </mxCell>
        <mxCell id="hh6XJMg2Mayo5gV9Mvoj-4" value="&lt;span style=&quot;font-size: 18.3333px;&quot;&gt;10&lt;sup&gt;2&lt;/sup&gt;&lt;/span&gt;" style="text;html=1;strokeColor=none;fillColor=none;align=center;verticalAlign=middle;whiteSpace=wrap;rounded=0;fontSize=22;fontColor=#CC0066;" parent="1" vertex="1">
          <mxGeometry x="845" y="780" width="60" height="30" as="geometry" />
        </mxCell>
        <mxCell id="hh6XJMg2Mayo5gV9Mvoj-5" value="&lt;span style=&quot;font-size: 18.3333px;&quot;&gt;1/10&lt;/span&gt;" style="text;html=1;strokeColor=none;fillColor=none;align=center;verticalAlign=middle;whiteSpace=wrap;rounded=0;fontSize=22;fontColor=#CC0066;" parent="1" vertex="1">
          <mxGeometry x="880" y="700" width="60" height="30" as="geometry" />
        </mxCell>
        <mxCell id="hh6XJMg2Mayo5gV9Mvoj-6" value="&lt;span style=&quot;font-size: 18.3333px;&quot;&gt;10&lt;/span&gt;" style="text;html=1;strokeColor=none;fillColor=none;align=center;verticalAlign=middle;whiteSpace=wrap;rounded=0;fontSize=22;fontColor=#CC0066;" parent="1" vertex="1">
          <mxGeometry x="880" y="620" width="60" height="30" as="geometry" />
        </mxCell>
        <mxCell id="hh6XJMg2Mayo5gV9Mvoj-7" value="2 * 10&lt;sup style=&quot;border-color: var(--border-color); font-size: 18.333px;&quot;&gt;5&amp;nbsp;&lt;/sup&gt;&lt;span style=&quot;font-size: 18.333px;&quot;&gt;&amp;nbsp;* 1/10 = 2 * 10&lt;sup style=&quot;font-size: 18.333px;&quot;&gt;4&lt;/sup&gt;&lt;/span&gt;" style="text;html=1;strokeColor=none;fillColor=none;align=center;verticalAlign=middle;whiteSpace=wrap;rounded=0;fontSize=18.333;fontColor=#CC0066;" parent="1" vertex="1">
          <mxGeometry x="1000" y="535" width="130" height="70" as="geometry" />
        </mxCell>
        <mxCell id="hh6XJMg2Mayo5gV9Mvoj-10" value="&lt;span style=&quot;font-size: 18.3333px;&quot;&gt;1/10&lt;/span&gt;" style="text;html=1;strokeColor=none;fillColor=none;align=center;verticalAlign=middle;whiteSpace=wrap;rounded=0;fontSize=22;fontColor=#CC0066;" parent="1" vertex="1">
          <mxGeometry x="670" y="700" width="60" height="30" as="geometry" />
        </mxCell>
        <mxCell id="hh6XJMg2Mayo5gV9Mvoj-11" value="(10&lt;sup style=&quot;border-color: var(--border-color); font-size: 18.333px;&quot;&gt;3 &lt;/sup&gt;&lt;span style=&quot;border-color: var(--border-color); font-size: 18.333px;&quot;&gt;*&amp;nbsp;&amp;nbsp;2 * 10&lt;sup style=&quot;border-color: var(--border-color); font-size: 18.333px;&quot;&gt;4 &lt;/sup&gt;&lt;span style=&quot;border-color: var(--border-color); font-size: 18.333px;&quot;&gt;)&lt;/span&gt;&lt;span style=&quot;border-color: var(--border-color); font-size: 18.333px;&quot;&gt;/ 10&lt;sup style=&quot;font-size: 18.333px;&quot;&gt;4 &lt;/sup&gt;=&lt;/span&gt;&lt;/span&gt;&lt;span style=&quot;font-size: 18.333px;&quot;&gt;&amp;nbsp;2 * 10&lt;/span&gt;&lt;span style=&quot;font-size: 18.333px;&quot;&gt;&lt;sup style=&quot;font-size: 18.333px;&quot;&gt;3&lt;/sup&gt;&lt;/span&gt;" style="text;html=1;strokeColor=none;fillColor=none;align=center;verticalAlign=middle;whiteSpace=wrap;rounded=0;fontSize=18.333;fontColor=#CC0066;" parent="1" vertex="1">
          <mxGeometry x="551" y="495" width="313" height="30" as="geometry" />
        </mxCell>
        <mxCell id="hh6XJMg2Mayo5gV9Mvoj-12" value="&lt;span style=&quot;font-size: 18.3333px;&quot;&gt;10&lt;sup&gt;3&lt;/sup&gt;&lt;/span&gt;" style="text;html=1;strokeColor=none;fillColor=none;align=center;verticalAlign=middle;whiteSpace=wrap;rounded=0;fontSize=22;fontColor=#CC0066;" parent="1" vertex="1">
          <mxGeometry x="665" y="555" width="60" height="30" as="geometry" />
        </mxCell>
        <mxCell id="hh6XJMg2Mayo5gV9Mvoj-13" value="&lt;span style=&quot;font-size: 18.3333px;&quot;&gt;10&lt;/span&gt;" style="text;html=1;strokeColor=none;fillColor=none;align=center;verticalAlign=middle;whiteSpace=wrap;rounded=0;fontSize=22;fontColor=#CC0066;" parent="1" vertex="1">
          <mxGeometry x="930" y="450" width="60" height="30" as="geometry" />
        </mxCell>
        <mxCell id="hh6XJMg2Mayo5gV9Mvoj-14" value="&lt;span style=&quot;font-size: 18.3333px;&quot;&gt;5&lt;/span&gt;" style="text;html=1;strokeColor=none;fillColor=none;align=center;verticalAlign=middle;whiteSpace=wrap;rounded=0;fontSize=22;fontColor=#CC0066;" parent="1" vertex="1">
          <mxGeometry x="930" y="370" width="60" height="30" as="geometry" />
        </mxCell>
        <mxCell id="hh6XJMg2Mayo5gV9Mvoj-15" value="&lt;span style=&quot;font-size: 18.3333px;&quot;&gt;10&lt;sup&gt;9&lt;/sup&gt;&lt;/span&gt;" style="text;html=1;strokeColor=none;fillColor=none;align=center;verticalAlign=middle;whiteSpace=wrap;rounded=0;fontSize=22;fontColor=#CC0066;" parent="1" vertex="1">
          <mxGeometry x="50" y="780" width="60" height="30" as="geometry" />
        </mxCell>
        <mxCell id="hh6XJMg2Mayo5gV9Mvoj-16" value="&lt;span style=&quot;font-size: 18.3333px;&quot;&gt;5 * 10&lt;sup&gt;7&lt;/sup&gt;&lt;/span&gt;" style="text;html=1;strokeColor=none;fillColor=none;align=center;verticalAlign=middle;whiteSpace=wrap;rounded=0;fontSize=22;fontColor=#CC0066;" parent="1" vertex="1">
          <mxGeometry x="330" y="780" width="60" height="30" as="geometry" />
        </mxCell>
        <mxCell id="hh6XJMg2Mayo5gV9Mvoj-17" value="&lt;span style=&quot;font-size: 16px;&quot;&gt;1/10&lt;/span&gt;" style="text;html=1;strokeColor=none;fillColor=none;align=center;verticalAlign=middle;whiteSpace=wrap;rounded=0;fontSize=16;fontColor=#CC0066;" parent="1" vertex="1">
          <mxGeometry x="85" y="694" width="60" height="30" as="geometry" />
        </mxCell>
        <mxCell id="hh6XJMg2Mayo5gV9Mvoj-18" value="&lt;span style=&quot;font-size: 18.3333px;&quot;&gt;10&lt;/span&gt;&lt;span style=&quot;font-size: 15.2778px;&quot;&gt;&lt;sup&gt;8&lt;/sup&gt;&lt;/span&gt;" style="text;html=1;strokeColor=none;fillColor=none;align=center;verticalAlign=middle;whiteSpace=wrap;rounded=0;fontSize=22;fontColor=#CC0066;" parent="1" vertex="1">
          <mxGeometry x="75" y="555" width="60" height="30" as="geometry" />
        </mxCell>
        <mxCell id="hh6XJMg2Mayo5gV9Mvoj-19" value="&lt;span style=&quot;font-size: 16px;&quot;&gt;9/10&lt;/span&gt;" style="text;html=1;strokeColor=none;fillColor=none;align=center;verticalAlign=middle;whiteSpace=wrap;rounded=0;fontSize=16;fontColor=#CC0066;" parent="1" vertex="1">
          <mxGeometry x="462.5" y="670" width="60" height="30" as="geometry" />
        </mxCell>
        <mxCell id="hh6XJMg2Mayo5gV9Mvoj-20" value="&lt;span style=&quot;font-size: 18.3333px;&quot;&gt;45 * 10&lt;/span&gt;&lt;span style=&quot;font-size: 15.2778px;&quot;&gt;&lt;sup&gt;6&lt;/sup&gt;&lt;/span&gt;" style="text;html=1;strokeColor=none;fillColor=none;align=center;verticalAlign=middle;whiteSpace=wrap;rounded=0;fontSize=22;fontColor=#CC0066;" parent="1" vertex="1">
          <mxGeometry x="365" y="630" width="75" height="30" as="geometry" />
        </mxCell>
        <mxCell id="hh6XJMg2Mayo5gV9Mvoj-21" value="&lt;span style=&quot;font-size: 16px;&quot;&gt;1/1000&lt;/span&gt;" style="text;html=1;strokeColor=none;fillColor=none;align=center;verticalAlign=middle;whiteSpace=wrap;rounded=0;fontSize=16;fontColor=#CC0066;" parent="1" vertex="1">
          <mxGeometry x="423.75" y="590" width="60" height="30" as="geometry" />
        </mxCell>
        <mxCell id="hh6XJMg2Mayo5gV9Mvoj-22" value="&lt;span style=&quot;font-size: 18.3333px;&quot;&gt;45 * 10&lt;sup&gt;3&lt;/sup&gt;&lt;/span&gt;" style="text;html=1;strokeColor=none;fillColor=none;align=center;verticalAlign=middle;whiteSpace=wrap;rounded=0;fontSize=22;fontColor=#CC0066;" parent="1" vertex="1">
          <mxGeometry x="365" y="550" width="75" height="30" as="geometry" />
        </mxCell>
        <mxCell id="hh6XJMg2Mayo5gV9Mvoj-23" value="10&amp;nbsp;&lt;sup style=&quot;border-color: var(--border-color); font-size: 18.333px;&quot;&gt;8&amp;nbsp;&lt;/sup&gt;&lt;span style=&quot;font-size: 18.333px;&quot;&gt;&amp;nbsp;* 1/1000 * 9/10 =&amp;nbsp;&lt;/span&gt;&lt;span style=&quot;font-size: 18.333px;&quot;&gt;~ 10&lt;/span&gt;&lt;span style=&quot;font-size: 18.333px;&quot;&gt;&lt;sup style=&quot;font-size: 18.333px;&quot;&gt;5 &lt;/sup&gt;&amp;nbsp;&lt;/span&gt;" style="text;html=1;strokeColor=none;fillColor=none;align=center;verticalAlign=middle;whiteSpace=wrap;rounded=0;fontSize=18.333;fontColor=#CC0066;" parent="1" vertex="1">
          <mxGeometry x="230.5" y="490" width="259" height="30" as="geometry" />
        </mxCell>
        <mxCell id="hh6XJMg2Mayo5gV9Mvoj-31" value="&lt;span style=&quot;font-size: 18.3333px;&quot;&gt;~ 5 * 10&lt;/span&gt;&lt;span style=&quot;font-size: 15.2778px;&quot;&gt;&lt;sup&gt;2&lt;/sup&gt;&lt;/span&gt;" style="text;html=1;strokeColor=none;fillColor=none;align=center;verticalAlign=middle;whiteSpace=wrap;rounded=0;fontSize=22;fontColor=#CC0066;" parent="1" vertex="1">
          <mxGeometry x="630" y="150" width="90" height="30" as="geometry" />
        </mxCell>
        <mxCell id="hh6XJMg2Mayo5gV9Mvoj-34" value="&lt;span style=&quot;font-size: 18.3333px;&quot;&gt;~ 5 * 10&lt;/span&gt;&lt;span style=&quot;font-size: 15.2778px;&quot;&gt;&lt;sup&gt;3&lt;/sup&gt;&lt;/span&gt;" style="text;html=1;strokeColor=none;fillColor=none;align=center;verticalAlign=middle;whiteSpace=wrap;rounded=0;fontSize=22;fontColor=#CC0066;" parent="1" vertex="1">
          <mxGeometry x="575" y="230" width="90" height="30" as="geometry" />
        </mxCell>
        <mxCell id="e1YFPFogA7IRDGSYu4cl-2" value="&lt;font style=&quot;font-size: 18.333px;&quot;&gt;~ 10&lt;sup style=&quot;&quot;&gt;5&amp;nbsp; &lt;/sup&gt;* (5/10&lt;sup style=&quot;&quot;&gt;2&lt;/sup&gt;) =&amp;nbsp;~ 5 * 10&lt;span style=&quot;border-color: var(--border-color);&quot;&gt;&lt;sup style=&quot;border-color: var(--border-color);&quot;&gt;3&lt;/sup&gt;&lt;/span&gt;&lt;/font&gt;" style="text;html=1;strokeColor=none;fillColor=none;align=center;verticalAlign=middle;whiteSpace=wrap;rounded=0;fontSize=22;fontColor=#CC0066;" parent="1" vertex="1">
          <mxGeometry x="550" y="290" width="260" height="30" as="geometry" />
        </mxCell>
        <mxCell id="e1YFPFogA7IRDGSYu4cl-4" value="&lt;span style=&quot;font-size: 15px;&quot;&gt;TABLE ACCESS FULL + FILTER&lt;/span&gt;" style="text;html=1;strokeColor=none;fillColor=none;align=center;verticalAlign=middle;whiteSpace=wrap;rounded=0;fontSize=15;fontColor=#FF8000;fontStyle=3" parent="1" vertex="1">
          <mxGeometry x="285" y="810" width="150" height="60" as="geometry" />
        </mxCell>
        <mxCell id="e1YFPFogA7IRDGSYu4cl-6" value="&lt;span style=&quot;font-size: 15px;&quot;&gt;TABLE ACCESS FULL + FILTER&lt;/span&gt;" style="text;html=1;strokeColor=none;fillColor=none;align=center;verticalAlign=middle;whiteSpace=wrap;rounded=0;fontSize=15;fontColor=#FF8000;fontStyle=3" parent="1" vertex="1">
          <mxGeometry x="5" y="810" width="150" height="60" as="geometry" />
        </mxCell>
        <mxCell id="e1YFPFogA7IRDGSYu4cl-7" value="&lt;span style=&quot;font-size: 15px;&quot;&gt;TABLE ACCESS FULL + FILTER&lt;/span&gt;" style="text;html=1;strokeColor=none;fillColor=none;align=center;verticalAlign=middle;whiteSpace=wrap;rounded=0;fontSize=15;fontColor=#FF8000;fontStyle=3" parent="1" vertex="1">
          <mxGeometry x="580" y="810" width="150" height="60" as="geometry" />
        </mxCell>
        <mxCell id="e1YFPFogA7IRDGSYu4cl-8" value="&lt;span style=&quot;font-size: 15px;&quot;&gt;TABLE ACCESS FULL + FILTER&lt;/span&gt;" style="text;html=1;strokeColor=none;fillColor=none;align=center;verticalAlign=middle;whiteSpace=wrap;rounded=0;fontSize=15;fontColor=#FF8000;fontStyle=3" parent="1" vertex="1">
          <mxGeometry x="805" y="810" width="140" height="60" as="geometry" />
        </mxCell>
        <mxCell id="e1YFPFogA7IRDGSYu4cl-9" value="&lt;span style=&quot;font-size: 15px;&quot;&gt;TABLE ACCESS FULL&lt;/span&gt;" style="text;html=1;strokeColor=none;fillColor=none;align=center;verticalAlign=middle;whiteSpace=wrap;rounded=0;fontSize=15;fontColor=#FF8000;fontStyle=3" parent="1" vertex="1">
          <mxGeometry x="1005" y="810" width="140" height="60" as="geometry" />
        </mxCell>
        <mxCell id="e1YFPFogA7IRDGSYu4cl-10" value="&lt;span style=&quot;font-size: 15px;&quot;&gt;NL&lt;/span&gt;" style="text;html=1;strokeColor=none;fillColor=none;align=center;verticalAlign=middle;whiteSpace=wrap;rounded=0;fontSize=15;fontColor=#FF8000;fontStyle=3" parent="1" vertex="1">
          <mxGeometry x="957" y="605" width="46" height="60" as="geometry" />
        </mxCell>
        <mxCell id="e1YFPFogA7IRDGSYu4cl-11" value="&lt;span style=&quot;font-size: 15px;&quot;&gt;Outer&lt;/span&gt;" style="text;html=1;strokeColor=none;fillColor=none;align=center;verticalAlign=middle;whiteSpace=wrap;rounded=0;fontSize=15;fontColor=#FF8000;fontStyle=3" parent="1" vertex="1">
          <mxGeometry x="1080" y="629" width="46" height="60" as="geometry" />
        </mxCell>
        <mxCell id="e1YFPFogA7IRDGSYu4cl-12" value="&lt;span style=&quot;font-size: 15px;&quot;&gt;Inner&lt;/span&gt;" style="text;html=1;strokeColor=none;fillColor=none;align=center;verticalAlign=middle;whiteSpace=wrap;rounded=0;fontSize=15;fontColor=#FF8000;fontStyle=3" parent="1" vertex="1">
          <mxGeometry x="864" y="564" width="46" height="60" as="geometry" />
        </mxCell>
        <mxCell id="e1YFPFogA7IRDGSYu4cl-13" value="&lt;span style=&quot;font-size: 15px;&quot;&gt;HJ&lt;/span&gt;" style="text;html=1;strokeColor=none;fillColor=none;align=center;verticalAlign=middle;whiteSpace=wrap;rounded=0;fontSize=15;fontColor=#FF8000;fontStyle=3" parent="1" vertex="1">
          <mxGeometry x="842.5" y="540" width="46" height="50" as="geometry" />
        </mxCell>
        <mxCell id="e1YFPFogA7IRDGSYu4cl-14" value="&lt;span style=&quot;font-size: 15px;&quot;&gt;GB HASH&lt;/span&gt;" style="text;html=1;strokeColor=none;fillColor=none;align=center;verticalAlign=middle;whiteSpace=wrap;rounded=0;fontSize=15;fontColor=#FF8000;fontStyle=3" parent="1" vertex="1">
          <mxGeometry x="990" y="435" width="90" height="60" as="geometry" />
        </mxCell>
        <mxCell id="e1YFPFogA7IRDGSYu4cl-15" value="&lt;span style=&quot;font-size: 15px;&quot;&gt;HJ&lt;/span&gt;" style="text;html=1;strokeColor=none;fillColor=none;align=center;verticalAlign=middle;whiteSpace=wrap;rounded=0;fontSize=15;fontColor=#FF8000;fontStyle=3" parent="1" vertex="1">
          <mxGeometry x="194" y="535" width="46" height="60" as="geometry" />
        </mxCell>
        <mxCell id="e1YFPFogA7IRDGSYu4cl-16" value="&lt;span style=&quot;font-size: 15px;&quot;&gt;NL&lt;/span&gt;" style="text;html=1;strokeColor=none;fillColor=none;align=center;verticalAlign=middle;whiteSpace=wrap;rounded=0;fontSize=15;fontColor=#FF8000;fontStyle=3" parent="1" vertex="1">
          <mxGeometry x="504.5" y="321" width="46" height="60" as="geometry" />
        </mxCell>
        <mxCell id="e1YFPFogA7IRDGSYu4cl-17" value="&lt;span style=&quot;font-size: 15px;&quot;&gt;Outer&lt;/span&gt;" style="text;html=1;strokeColor=none;fillColor=none;align=center;verticalAlign=middle;whiteSpace=wrap;rounded=0;fontSize=15;fontColor=#FF8000;fontStyle=3" parent="1" vertex="1">
          <mxGeometry x="344" y="321" width="46" height="60" as="geometry" />
        </mxCell>
        <mxCell id="e1YFPFogA7IRDGSYu4cl-18" value="&lt;span style=&quot;font-size: 15px;&quot;&gt;Inner&lt;/span&gt;" style="text;html=1;strokeColor=none;fillColor=none;align=center;verticalAlign=middle;whiteSpace=wrap;rounded=0;fontSize=15;fontColor=#FF8000;fontStyle=3" parent="1" vertex="1">
          <mxGeometry x="665" y="321" width="46" height="60" as="geometry" />
        </mxCell>
        <mxCell id="e1YFPFogA7IRDGSYu4cl-19" value="&lt;span style=&quot;font-size: 15px;&quot;&gt;GB HASH&lt;/span&gt;" style="text;html=1;strokeColor=none;fillColor=none;align=center;verticalAlign=middle;whiteSpace=wrap;rounded=0;fontSize=15;fontColor=#FF8000;fontStyle=3" parent="1" vertex="1">
          <mxGeometry x="670" y="215" width="90" height="60" as="geometry" />
        </mxCell>
      </root>
    </mxGraphModel>
  </diagram>
</mxfile>
